<?xml version="1.0" encoding="UTF-8" standalone="no"?>
<svg
   xmlns:dc="http://purl.org/dc/elements/1.1/"
   xmlns:cc="http://creativecommons.org/ns#"
   xmlns:rdf="http://www.w3.org/1999/02/22-rdf-syntax-ns#"
   xmlns:svg="http://www.w3.org/2000/svg"
   xmlns="http://www.w3.org/2000/svg"
   viewBox="0 0 258 258"
   height="200"
   width="200"
   xml:space="preserve"
   id="svg2"
   version="1.1">
  <metadata id="metadata8">
    <rdf:RDF>
      <cc:Work rdf:about="">
        <dc:format>image/svg+xml</dc:format>
        <dc:type rdf:resource="http://purl.org/dc/dcmitype/StillImage" />
      </cc:Work>
    </rdf:RDF>
  </metadata>
  <defs id="defs6" />
  <!--<g transform="matrix(1.3333333,0,0,-1.3333333,0,258.66667)" id="g10">-->
  <g transform="matrix(1.3333333,0,0,-1.3333333,0,258) scale(0.1)" id="g10">
    <path id="mb-logo"
          style="fill:#231f20;fill-opacity:1;fill-rule:evenodd;stroke:none"
          d="M 966.152,74.5508 C 466.453,74.7734 61.4688,475.484 61.4688,969.562 c 0,494.308 405.2072,895.008 904.6832,894.788 500.148,0 905.138,-400.71 905.138,-894.788 0,-494.304 -405.21,-895.0112 -905.138,-895.0112 z m -742.019,465.7302 16.203,12.598 c -46.797,85.723 -64.797,142.871 -85.274,206.32 -1.796,4.723 -2.921,7.871 -4.949,10.571 -1.347,-3.598 -0.675,-6.75 -0.449,-10.797 13.051,-69.301 44.551,-156.594 74.469,-218.692 z m 754.621,1235.199 123.066,-715.7 -128.691,-75.37 -4.277,790.84 c 0,9.45 -6.297,9.45 -7.649,0 l -72.672,-750.12 -53.996,31.28 115.645,718.84 c -448.184,-2.7 -802.09,-362.46 -802.09,-807.035 0,-140.399 44.098,-287.992 107.547,-402.961 l 564.726,469.556 54.215,-31.05 -634.016,-455.604 c -15.3,-10.801 -10.8,-15.976 6.075,-6.754 L 954.68,950.438 V 803.293 L 270.934,542.305 C 414.023,308.543 667.816,159.598 963.902,159.598 c 295.408,0 553.478,149.168 696.568,382.484 L 977.852,802.844 V 949.988 L 1658.89,557.156 c 15.53,-8.551 20.03,-3.824 5.41,6.524 l -606.35,439.85 54.22,31.05 564.28,-470.002 c 64.79,115.645 107.54,263.465 107.54,404.984 0,438.958 -364.93,793.988 -805.236,805.918 z m 849.116,-643.93 c 1.57,-4.27 2.92,-7.87 4.95,-10.35 1.34,3.6 0.22,6.75 0,10.8 -74.48,406.79 -427.26,710.75 -864.867,710.75 -489.805,0 -886.0116,-397.11 -886.0116,-886.688 0,-115.648 29.4806,-225.89 69.5236,-326.914 18.453,-46.57 77.39,-152.765 91.797,-173.687 3.148,-4.5 4.496,-6.75 8.097,-9.449 -0.226,4.273 -0.449,6.3 -2.695,11.472 -2.48,4.274 -52.652,99.899 -81.676,170.993 -24.746,61.195 -55.566,183.14 -55.566,324.437 0,474.956 385.402,860.356 860.355,860.356 248.393,-0.22 481.923,-121.49 625.023,-278.54 108.67,-119.24 164.92,-199.34 231.07,-403.18 z M 252.035,535.332 232.461,528.133 c 127.121,-242.988 393.73,-419.61 733.691,-419.61 482.378,-0.226 868.008,390.133 868.008,861.039 0,115.198 -33.29,185.838 -51.97,236.908 -13.73,38.25 -43.2,96.98 -56.25,121.05 -2.69,4.73 -4.49,6.75 -8.1,9.68 0.23,-4.28 0.45,-6.75 3.15,-11.48 10.13,-20.02 32.62,-70.42 48.6,-121.04 21.6,-67.28 35.1,-142.64 35.1,-235.118 0,-146.917 -46.12,-297.21 -114.07,-416.906 3.83,-9.898 0.22,-14.851 -11.25,-18 -148.27,-238.488 -412.63,-394.633 -713.444,-394.41 -282.586,0 -508.473,151.418 -579.797,229.942 -58.047,63.898 -101.02,111.371 -134.094,165.144 z m 669.344,470.678 37.348,-21.822 4.73,580.702 c 0,11.7 -3.602,12.15 -4.504,0.45 z m 65.246,-43.873 502.405,-294.063 c 9,-5.172 10.8,-2.027 2.25,3.602 l -466.4,312.512 z M 910.129,982.391 783.91,879.117 c -6.972,-5.851 -3.82,-8.551 4.504,-3.828 l 157.492,87.301 -35.777,19.801">
      <!--<animateTransform attributeType="xml"
                        attributeName="transform"
                        type="rotate"
                        from="0 129 129"
                        to="360 129 129"
                        dur="6s"
                        repeatCount="indefinite" />-->  
    </path>
  </g>
</svg>